<?xml version="1.0" encoding="UTF-8" standalone="no"?>
<!-- Created with Inkscape (http://www.inkscape.org/) -->

<svg
   xmlns:dc="http://purl.org/dc/elements/1.1/"
   xmlns:cc="http://creativecommons.org/ns#"
   xmlns:rdf="http://www.w3.org/1999/02/22-rdf-syntax-ns#"
   xmlns:svg="http://www.w3.org/2000/svg"
   xmlns="http://www.w3.org/2000/svg"
   version="1.1"
   width="509.26999"
   height="28.9737"
   id="svg3189"
   xml:space="preserve"><metadata
     id="metadata3195"><rdf:RDF><cc:Work
         rdf:about=""><dc:format>image/svg+xml</dc:format><dc:type
           rdf:resource="http://purl.org/dc/dcmitype/StillImage" /><dc:title></dc:title></cc:Work></rdf:RDF></metadata><defs
     id="defs3193"><clipPath
       id="clipPath3205"><path
         d="m 0,0 6582.67,0 0,2580 L 0,2580 0,0 z"
         id="path3207" /></clipPath></defs><g
     transform="matrix(1.25,0,0,-1.25,-177.445,28.9737)"
     id="g3197"><g
       transform="scale(0.1,0.1)"
       id="g3201"><g
         clip-path="url(#clipPath3205)"
         id="g3203"><path
           d="m 2162.73,2580.08 -747.75,0 0,-277.07 747.75,0 c 250.9,0 420.06,-173.16 420.06,-419.92 l 0,-4.08 c 0,-246.7 -169.16,-415.9 -420.06,-415.9 l -747.75,0 0,-276.72 747.75,0 c 437.93,0 740.49,304.55 740.49,696.7 l 0,3.89 c 0,392.12 -302.56,693.1 -740.49,693.1"
           id="path3209"
           style="fill:#00ace1;fill-opacity:1;fill-rule:nonzero;stroke:none" /><path
           d="m 3050.78,1186.39 321.16,0 0,1393.69 -321.16,0 0,-1393.69 z"
           id="path3211"
           style="fill:#00ace1;fill-opacity:1;fill-rule:nonzero;stroke:none" /><path
           d="m 1118.42,1878.95 0,3.86 c 0,230.22 -168.811,422.05 -406.701,422.05 -237.949,0 -402.91,-187.98 -402.91,-418.14 l 0,-3.91 c 0,-230.21 168.828,-422.05 406.718,-422.05 237.852,0 402.893,188.03 402.893,418.19 z m -1118.42,0 0,3.86 c 0,381.76 301.172,694.87 715.527,694.87 414.433,0 711.793,-309.28 711.793,-690.96 l 0,-3.91 c 0,-381.71 -301.23,-694.54 -715.601,-694.54 C 297.402,1188.27 0,1497.21 0,1878.95"
           id="path3213"
           style="fill:#32516e;fill-opacity:1;fill-rule:nonzero;stroke:none" /><path
           d="m 1753.94,611.852 0,1.109 c 0,95.348 -76.41,173.609 -181.31,173.609 -104.9,0 -180.1,-77.16 -180.1,-172.511 l 0,-1.098 c 0,-95.359 76.41,-173.621 181.31,-173.621 104.91,0 180.1,77.172 180.1,172.512 z m -394.15,0 0,1.109 c 0,105.269 85.5,199.519 214.05,199.519 128.56,0 212.84,-93.148 212.84,-198.421 0.61,-0.547 0.61,-0.547 0,-1.098 0,-105.27 -85.49,-199.52 -214.05,-199.52 -128.55,0 -212.84,93.149 -212.84,198.411"
           id="path3215"
           style="fill:#32516e;fill-opacity:1;fill-rule:nonzero;stroke:none" /><path
           d="m 2132.26,559.5 0,1.102 c 0,73.847 -56.39,121.25 -121.27,121.25 -64.28,0 -126.13,-49.051 -126.13,-120.704 l 0,-1.097 c 0,-72.199 61.85,-120.711 126.13,-120.711 67.31,0 121.27,44.652 121.27,120.16 z m -275.29,141.641 29.7,0 0,-62.832 c 26.68,36.929 66.11,69.441 127.35,69.441 74.59,0 150.38,-54.559 150.38,-146.051 l 0,-1.097 c 0,-91.493 -75.79,-147.161 -150.38,-147.161 -61.86,0 -101.88,31.969 -127.35,67.239 l 0,-148.809 -29.7,0 0,369.27"
           id="path3217"
           style="fill:#32516e;fill-opacity:1;fill-rule:nonzero;stroke:none" /><path
           d="m 2462.08,573.832 c -4.25,56.758 -40.02,109.129 -110.97,109.129 -61.25,0 -108.55,-46.852 -114.01,-109.129 l 224.98,0 z m -256.51,-13.781 0,1.097 c 0,81.571 63.07,146.602 146.75,146.602 86.72,0 141.89,-63.918 141.89,-147.148 0,-4.961 0,-6.622 -0.6,-11.02 l -256.51,0 c 5.46,-70 60.65,-110.781 121.28,-110.781 47.9,0 80.66,19.281 106.12,44.09 l 20.62,-16.539 c -31.53,-30.864 -68.52,-52.911 -127.95,-52.911 -81.26,0 -151.6,58.981 -151.6,146.61"
           id="path3219"
           style="fill:#32516e;fill-opacity:1;fill-rule:nonzero;stroke:none" /><path
           d="m 2550.58,701.141 29.71,0 0,-52.352 c 20.61,33.063 55.18,58.961 111.58,58.961 78.22,0 123.7,-48.5 123.7,-115.738 l 0,-171.953 -29.72,0 0,167 c 0,57.863 -35.77,95.902 -98.23,95.902 -60.63,0 -107.33,-41.902 -107.33,-100.32 l 0,-162.582 -29.71,0 0,281.082"
           id="path3221"
           style="fill:#32516e;fill-opacity:1;fill-rule:nonzero;stroke:none" /><path
           d="m 3191.46,446.512 c 118.24,0 192.83,73.297 192.83,165.34 l 0,1.109 c 0,91.488 -74.59,166.437 -192.83,166.437 l -109.76,0 0,-332.886 109.76,0 z m -141.29,359.347 141.29,0 c 133.39,0 225.56,-83.23 225.56,-191.8 l 0,-1.098 c 0,-108.582 -92.17,-192.902 -225.56,-192.902 l -141.29,0 0,385.8"
           id="path3223"
           style="fill:#32516e;fill-opacity:1;fill-rule:nonzero;stroke:none" /><path
           d="m 3700.17,525.332 0,31.957 c -26.08,6.07 -60.65,12.68 -104.91,12.68 -65.48,0 -101.87,-26.457 -101.87,-65.59 l 0,-1.098 c 0,-40.781 42.44,-64.48 89.74,-64.48 63.07,0 117.04,35.269 117.04,86.531 z m -238.3,-23.703 0,1.101 c 0,58.418 55.17,91.489 135.21,91.489 43.05,0 72.77,-4.969 102.48,-12.117 l 0,12.117 c 0,56.761 -38.2,85.972 -101.87,85.972 -37.6,0 -68.52,-9.359 -97.02,-22.589 l -10.91,23.699 c 33.94,14.328 67.3,24.25 109.74,24.25 41.86,0 75.2,-10.469 97.64,-30.871 20.6,-18.739 31.52,-44.629 31.52,-79.36 l 0,-175.261 -29.1,0 0,46.839 c -21.23,-27 -59.43,-53.457 -118.24,-53.457 -57.62,0 -119.45,29.758 -119.45,88.188"
           id="path3225"
           style="fill:#32516e;fill-opacity:1;fill-rule:nonzero;stroke:none" /><path
           d="m 3818.45,492.25 0,184.082 -44.89,0 0,24.809 44.89,0 0,89.828 29.7,0 0,-89.828 108.56,0 0,-24.809 -108.56,0 0,-181.312 c 0,-40.239 26.08,-54.571 61.86,-54.571 15.16,0 27.89,2.75 45.47,9.922 l 0,-25.351 c -15.76,-6.61 -30.92,-9.93 -50.31,-9.93 -47.91,0 -86.72,23.711 -86.72,77.16"
           id="path3227"
           style="fill:#32516e;fill-opacity:1;fill-rule:nonzero;stroke:none" /><path
           d="m 4227.12,525.332 0,31.957 c -26.08,6.07 -60.65,12.68 -104.92,12.68 -65.49,0 -101.86,-26.457 -101.86,-65.59 l 0,-1.098 c 0,-40.781 42.44,-64.48 89.75,-64.48 63.04,0 117.03,35.269 117.03,86.531 z m -238.32,-23.703 0,1.101 c 0,58.418 55.17,91.489 135.23,91.489 43.05,0 72.76,-4.969 102.48,-12.117 l 0,12.117 c 0,56.761 -38.2,85.972 -101.87,85.972 -37.6,0 -68.54,-9.359 -97.03,-22.589 l -10.92,23.699 c 33.96,14.328 67.32,24.25 109.77,24.25 41.83,0 75.19,-10.469 97.61,-30.871 20.63,-18.739 31.55,-44.629 31.55,-79.36 l 0,-175.261 -29.11,0 0,46.839 c -21.23,-27 -59.43,-53.457 -118.26,-53.457 -57.6,0 -119.45,29.758 -119.45,88.188"
           id="path3229"
           style="fill:#32516e;fill-opacity:1;fill-rule:nonzero;stroke:none" /><path
           d="m 4494.46,420.059 31.5312,0 0,385.801 -31.5312,0 0,-385.801 z"
           id="path3231"
           style="fill:#32516e;fill-opacity:1;fill-rule:nonzero;stroke:none" /><path
           d="m 4619.35,701.141 29.7,0 0,-52.352 c 20.63,33.063 55.2,58.961 111.58,58.961 78.23,0 123.72,-48.5 123.72,-115.738 l 0,-171.953 -29.73,0 0,167 c 0,57.863 -35.76,95.902 -98.22,95.902 -60.65,0 -107.35,-41.902 -107.35,-100.32 l 0,-162.582 -29.7,0 0,281.082"
           id="path3233"
           style="fill:#32516e;fill-opacity:1;fill-rule:nonzero;stroke:none" /><path
           d="m 4934.03,455.332 17.58,21.488 c 33.97,-23.699 71.54,-36.922 110.96,-36.922 41.85,0 74.59,20.942 74.59,53.461 l 0,1.102 c 0,33.07 -38.81,45.199 -81.86,56.219 -50.33,13.218 -106.11,27 -106.11,77.16 l 0,1.101 c 0,45.2 41.84,77.719 101.87,77.719 36.98,0 78.83,-12.129 109.75,-30.871 l -15.76,-22.598 c -28.5,17.09 -62.46,28.11 -95.2,28.11 -42.46,0 -70.35,-20.942 -70.35,-49.063 l 0,-1.09 c 0,-31.418 41.84,-43 86.12,-54.566 49.72,-12.684 101.87,-29.211 101.87,-78.812 l 0,-1.098 c 0,-50.16 -47.3,-82.121 -106.74,-82.121 -44.86,0 -93.98,16.531 -126.72,40.781"
           id="path3235"
           style="fill:#32516e;fill-opacity:1;fill-rule:nonzero;stroke:none" /><path
           d="m 5242.02,492.25 0,184.082 -44.86,0 0,24.809 44.86,0 0,89.828 29.73,0 0,-89.828 108.53,0 0,-24.809 -108.53,0 0,-181.312 c 0,-40.239 26.07,-54.571 61.83,-54.571 15.18,0 27.91,2.75 45.49,9.922 l 0,-25.351 c -15.76,-6.61 -30.92,-9.93 -50.33,-9.93 -47.91,0 -86.72,23.711 -86.72,77.16"
           id="path3237"
           style="fill:#32516e;fill-opacity:1;fill-rule:nonzero;stroke:none" /><path
           d="m 5442.1,701.141 29.71,0 0,-281.082 -29.71,0 0,281.082 z m -3.63,110.23 36.99,0 0,-36.93 -36.99,0 0,36.93"
           id="path3239"
           style="fill:#32516e;fill-opacity:1;fill-rule:nonzero;stroke:none" /><path
           d="m 5574.87,492.25 0,184.082 -44.86,0 0,24.809 44.86,0 0,89.828 29.73,0 0,-89.828 108.53,0 0,-24.809 -108.53,0 0,-181.312 c 0,-40.239 26.07,-54.571 61.84,-54.571 15.17,0 27.91,2.75 45.48,9.922 l 0,-25.351 c -15.76,-6.61 -30.91,-9.93 -50.33,-9.93 -47.91,0 -86.72,23.711 -86.72,77.16"
           id="path3241"
           style="fill:#32516e;fill-opacity:1;fill-rule:nonzero;stroke:none" /><path
           d="m 5764.66,529.191 0,171.95 29.71,0 0,-166.993 c 0,-57.867 35.78,-95.91 98.24,-95.91 60.62,0 107.32,41.891 107.32,100.313 l 0,162.59 29.71,0 0,-281.082 -29.71,0 0,52.363 c -20.62,-33.082 -55.17,-58.981 -111.58,-58.981 -78.22,0 -123.69,48.5 -123.69,115.75"
           id="path3243"
           style="fill:#32516e;fill-opacity:1;fill-rule:nonzero;stroke:none" /><path
           d="m 6128.43,492.25 0,184.082 -44.87,0 0,24.809 44.87,0 0,89.828 29.72,0 0,-89.828 108.54,0 0,-24.809 -108.54,0 0,-181.312 c 0,-40.239 26.08,-54.571 61.84,-54.571 15.18,0 27.91,2.75 45.49,9.922 l 0,-25.351 c -15.76,-6.61 -30.92,-9.93 -50.33,-9.93 -47.91,0 -86.72,23.711 -86.72,77.16"
           id="path3245"
           style="fill:#32516e;fill-opacity:1;fill-rule:nonzero;stroke:none" /><path
           d="m 6550.52,573.832 c -4.24,56.758 -40.02,109.129 -110.96,109.129 -61.25,0 -108.55,-46.852 -114,-109.129 l 224.96,0 z m -256.51,-13.781 0,1.097 c 0,81.571 63.07,146.602 146.76,146.602 86.72,0 141.9,-63.918 141.9,-147.148 0,-4.961 0,-6.622 -0.61,-11.02 l -256.5,0 c 5.45,-70 60.64,-110.781 121.27,-110.781 47.91,0 80.66,19.281 106.11,44.09 l 20.62,-16.539 c -31.52,-30.864 -68.51,-52.911 -127.94,-52.911 -81.25,0 -151.61,58.981 -151.61,146.61"
           id="path3247"
           style="fill:#32516e;fill-opacity:1;fill-rule:nonzero;stroke:none" /><path
           d="m 1419.56,224 143.76,0 0,-18.969 -121.19,0 0,-64.961 108.32,0 0,-18.718 -108.32,0 0,-79.2504 -22.57,0 0,181.8984"
           id="path3249"
           style="fill:#00ace1;fill-opacity:1;fill-rule:nonzero;stroke:none" /><path
           d="m 1595.34,176.441 22,0 0,-134.3394 -22,0 0,134.3394 z m -1.44,51.457 25.16,0 0,-22.089 -25.16,0 0,22.089"
           id="path3251"
           style="fill:#00ace1;fill-opacity:1;fill-rule:nonzero;stroke:none" /><path
           d="m 1658.5,176.441 22,0 0,-23.39 c 9.72,14.551 25.16,26.25 50.59,26.25 35.73,0 56.59,-21.821 56.59,-53.789 l 0,-83.4104 -22.01,0 0,78.4684 c 0,24.95 -14.85,40.539 -40.87,40.539 -25.43,0 -44.3,-16.89 -44.3,-42.097 l 0,-76.9104 -22,0 0,134.3394"
           id="path3253"
           style="fill:#00ace1;fill-opacity:1;fill-rule:nonzero;stroke:none" /><path
           d="m 1944.03,109.141 0,0.519 c 0,30.922 -26.01,51.711 -53.45,51.711 -28.57,0 -52.01,-19.223 -52.01,-51.711 l 0,-0.519 c 0,-31.6996 24,-51.9808 52.01,-51.9808 27.44,0 53.45,21.0586 53.45,51.9808 z m -128.04,-0.262 0,0.519 c 0,43.922 35.16,69.903 70.59,69.903 27.44,0 45.15,-13.512 56.59,-28.582 l 0,81.07 22.01,0 0,-189.6874 -22.01,0 0,27.0195 c -12,-16.1094 -29.43,-29.8828 -56.59,-29.8828 -35.43,0 -70.59,25.4609 -70.59,69.6407"
           id="path3255"
           style="fill:#00ace1;fill-opacity:1;fill-rule:nonzero;stroke:none" /><path
           d="m 2006.35,176.441 22,0 0,-134.3394 -22,0 0,134.3394 z m -1.43,51.457 25.15,0 0,-22.089 -25.15,0 0,22.089"
           id="path3257"
           style="fill:#00ace1;fill-opacity:1;fill-rule:nonzero;stroke:none" /><path
           d="m 2069.51,176.441 22,0 0,-23.39 c 9.72,14.551 25.16,26.25 50.58,26.25 35.74,0 56.6,-21.821 56.6,-53.789 l 0,-83.4104 -22.02,0 0,78.4684 c 0,24.95 -14.85,40.539 -40.86,40.539 -25.43,0 -44.3,-16.89 -44.3,-42.097 l 0,-76.9104 -22,0 0,134.3394"
           id="path3259"
           style="fill:#00ace1;fill-opacity:1;fill-rule:nonzero;stroke:none" /><path
           d="m 2355.04,115.629 0,0.531 c 0,27.539 -26.29,45.469 -54.3,45.469 -28.01,0 -51.16,-17.668 -51.16,-45.219 l 0,-0.512 c 0,-27.0269 23.73,-45.7378 51.16,-45.7378 28.01,0 54.3,18.4492 54.3,45.4688 z m -121.18,-96.9181 10.01,15.5899 c 16.86,-11.1719 35.72,-17.1524 56.87,-17.1524 32.59,0 53.73,16.3711 53.73,47.8204 l 0,15.8515 c -12.86,-15.6015 -30.86,-28.332 -58.02,-28.332 -35.44,0 -69.44,24.1719 -69.44,62.8907 l 0,0.519 c 0,39.231 34.29,63.403 69.44,63.403 27.72,0 45.73,-12.469 57.73,-27.031 l 0,24.171 22.02,0 0,-110.9527 c 0,-20.7969 -6.87,-36.6485 -18.87,-47.5586 C 2344.18,5.96875 2324.46,0 2301.03,0 c -24.58,0 -47.44,6.23828 -67.17,18.7109"
           id="path3261"
           style="fill:#00ace1;fill-opacity:1;fill-rule:nonzero;stroke:none" /><path
           d="m 2494.53,77.6914 0,81.0896 -20.58,0 0,17.66 20.58,0 0,40.539 22,0 0,-40.539 46.87,0 0,-17.66 -46.87,0 0,-78.4802 c 0,-16.3789 10.01,-22.3516 24.87,-22.3516 7.42,0 13.71,1.3008 21.44,4.6719 l 0,-17.1406 c -7.73,-3.6485 -16.01,-5.7188 -26.59,-5.7188 -23.72,0 -41.72,10.6485 -41.72,37.9297"
           id="path3263"
           style="fill:#00ace1;fill-opacity:1;fill-rule:nonzero;stroke:none" /><path
           d="m 2592.29,231.789 22,0 0,-78.738 c 9.72,14.551 25.16,26.25 50.59,26.25 35.73,0 56.59,-21.821 56.59,-53.789 l 0,-83.4104 -22.01,0 0,78.4684 c 0,24.95 -14.86,40.539 -40.87,40.539 -25.43,0 -44.3,-16.89 -44.3,-42.097 l 0,-76.9104 -22,0 0,189.6874"
           id="path3265"
           style="fill:#00ace1;fill-opacity:1;fill-rule:nonzero;stroke:none" /><path
           d="m 2866.67,117.191 c -2.57,24.43 -18,45.219 -47.15,45.219 -25.44,0 -44.88,-19.23 -48.02,-45.219 l 95.17,0 z m -43.16,-60.8004 c 20.29,0 34.59,7.5313 46.59,18.9688 l 13.71,-11.168 c -14.85,-15.082 -32.86,-25.2109 -60.87,-25.2109 -40.58,0 -73.74,28.3203 -73.74,70.1605 0,38.98 30.01,70.16 70.88,70.16 43.73,0 68.88,-31.711 68.88,-71.199 0,-1.813 0,-3.891 -0.28,-7.02 l -117.18,0 c 3.14,-28.3203 26,-44.6914 52.01,-44.6914"
           id="path3267"
           style="fill:#00ace1;fill-opacity:1;fill-rule:nonzero;stroke:none" /><path
           d="m 2975.57,224 25.16,0 71.16,-156.6992 71.44,156.6992 24.3,0 -86.02,-183.1992 -20.01,0 L 2975.57,224"
           id="path3269"
           style="fill:#00ace1;fill-opacity:1;fill-rule:nonzero;stroke:none" /><path
           d="m 3270.81,91.4688 0,12.4722 c -10.86,2.86 -25.15,5.719 -43.16,5.719 -27.43,0 -43.15,-10.91 -43.15,-27.0311 l 0,-0.5078 c 0,-16.9023 17.15,-26.7695 37.16,-26.7695 27.14,0 49.15,14.8086 49.15,36.1172 z m -108.61,-10.3985 0,0.5313 c 0,28.8394 25.72,43.9104 63.17,43.9104 18.86,0 32.01,-2.34 45.15,-5.723 l 0,4.16 c 0,23.91 -16,36.383 -43.72,36.383 -17.44,0 -31.15,-3.902 -44.87,-9.613 l -6.57,16.371 c 16.29,6.75 32,11.43 53.73,11.43 20.86,0 37.15,-5.188 47.72,-14.809 10.29,-9.359 15.43,-22.352 15.43,-39.492 l 0,-82.1174 -21.72,0 0,20.0078 c -10.28,-11.961 -27.15,-22.8711 -53.15,-22.8711 -27.73,0 -55.17,14.2929 -55.17,41.832"
           id="path3271"
           style="fill:#00ace1;fill-opacity:1;fill-rule:nonzero;stroke:none" /><path
           d="m 3330.85,42.1016 21.9883,0 0,189.688 -21.9883,0 0,-189.688 z"
           id="path3273"
           style="fill:#00ace1;fill-opacity:1;fill-rule:nonzero;stroke:none" /><path
           d="m 3391.73,93.0195 0,83.4215 21.99,0 0,-78.4722 c 0,-24.9493 14.86,-40.5391 40.88,-40.5391 25.16,0 44.3,16.8906 44.3,42.1015 l 0,76.9098 21.72,0 0,-134.3394 -21.72,0 0,23.3867 c -10,-14.5586 -25.16,-26.25 -50.59,-26.25 -35.72,0 -56.58,21.8203 -56.58,53.7812"
           id="path3275"
           style="fill:#00ace1;fill-opacity:1;fill-rule:nonzero;stroke:none" /><path
           d="m 3668.41,117.191 c -2.58,24.43 -18.01,45.219 -47.17,45.219 -25.43,0 -44.86,-19.23 -48.01,-45.219 l 95.18,0 z m -43.17,-60.8004 c 20.3,0 34.59,7.5313 46.59,18.9688 l 13.71,-11.168 c -14.85,-15.082 -32.85,-25.2109 -60.86,-25.2109 -40.59,0 -73.75,28.3203 -73.75,70.1605 0,38.98 30.02,70.16 70.88,70.16 43.73,0 68.88,-31.711 68.88,-71.199 0,-1.813 0,-3.891 -0.29,-7.02 l -117.17,0 c 3.15,-28.3203 26,-44.6914 52.01,-44.6914"
           id="path3277"
           style="fill:#00ace1;fill-opacity:1;fill-rule:nonzero;stroke:none" /><path
           d="m 3797.02,176.441 22.01,0 0,-134.3394 -22.01,0 0,134.3394 z m -1.42,51.457 25.15,0 0,-22.089 -25.15,0 0,22.089"
           id="path3279"
           style="fill:#00ace1;fill-opacity:1;fill-rule:nonzero;stroke:none" /><path
           d="m 3860.19,176.441 21.99,0 0,-23.39 c 9.72,14.551 25.15,26.25 50.58,26.25 35.75,0 56.61,-21.821 56.61,-53.789 l 0,-83.4104 -22.02,0 0,78.4684 c 0,24.95 -14.86,40.539 -40.88,40.539 -25.43,0 -44.29,-16.89 -44.29,-42.097 l 0,-76.9104 -21.99,0 0,134.3394"
           id="path3281"
           style="fill:#00ace1;fill-opacity:1;fill-rule:nonzero;stroke:none" /><path
           d="m 4266.04,132.531 0,0.508 c 0,41.32 -33.16,75.102 -78.88,75.102 -45.72,0 -78.3,-33.262 -78.3,-74.571 l 0,-0.531 c 0,-41.3085 33.14,-75.0898 78.86,-75.0898 45.75,0 78.32,33.2617 78.32,74.5818 z m -180.62,0 0,0.508 c 0,50.16 41.45,94.082 102.3,94.082 60.88,0 101.76,-43.402 101.76,-93.551 0.28,-0.261 0.28,-0.261 0,-0.531 0,-50.1406 -41.44,-94.0585 -102.32,-94.0585 -60.88,0 -101.74,43.3906 -101.74,93.5505"
           id="path3283"
           style="fill:#00ace1;fill-opacity:1;fill-rule:nonzero;stroke:none" /><path
           d="m 4450.13,108.879 0,0.519 c 0,31.704 -24.03,51.973 -52.03,51.973 -27.43,0 -53.44,-21.051 -53.44,-51.711 l 0,-0.519 c 0,-31.1801 26.01,-51.9808 53.44,-51.9808 28.59,0 52.03,19.2304 52.03,51.7188 z m -126.62,67.562 22.01,0 0,-27.019 c 11.99,16.098 29.43,29.879 56.58,29.879 35.45,0 70.61,-25.469 70.61,-69.641 l 0,-0.519 c 0,-43.9222 -34.89,-69.9027 -70.61,-69.9027 -27.44,0 -45.16,13.5117 -56.58,28.582 l 0,-67.300769 -22.01,0 0,175.921469"
           id="path3285"
           style="fill:#00ace1;fill-opacity:1;fill-rule:nonzero;stroke:none" /><path
           d="m 4611.61,117.191 c -2.58,24.43 -18.01,45.219 -47.15,45.219 -25.45,0 -44.88,-19.23 -48.02,-45.219 l 95.17,0 z m -43.16,-60.8004 c 20.29,0 34.59,7.5313 46.6,18.9688 l 13.71,-11.168 c -14.86,-15.082 -32.87,-25.2109 -60.88,-25.2109 -40.59,0 -73.73,28.3203 -73.73,70.1605 0,38.98 30,70.16 70.88,70.16 43.73,0 68.87,-31.711 68.87,-71.199 0,-1.813 0,-3.891 -0.28,-7.02 l -117.18,0 c 3.14,-28.3203 26.01,-44.6914 52.01,-44.6914"
           id="path3287"
           style="fill:#00ace1;fill-opacity:1;fill-rule:nonzero;stroke:none" /><path
           d="m 4662.49,176.441 22.01,0 0,-23.39 c 9.71,14.551 25.16,26.25 50.59,26.25 35.72,0 56.58,-21.821 56.58,-53.789 l 0,-83.4104 -22.01,0 0,78.4684 c 0,24.95 -14.85,40.539 -40.86,40.539 -25.43,0 -44.3,-16.89 -44.3,-42.097 l 0,-76.9104 -22.01,0 0,134.3394"
           id="path3289"
           style="fill:#00ace1;fill-opacity:1;fill-rule:nonzero;stroke:none" /><path
           d="m 4973.19,61.0586 c 50.59,0 82.87,31.1914 82.87,71.4724 l 0,0.508 c 0,40.293 -32.28,71.992 -82.87,71.992 l -46.87,0 0,-143.9724 46.87,0 z M 4903.74,224 l 69.45,0 c 62.87,0 106.31,-39.238 106.31,-90.43 l 0,-0.531 c 0,-51.1874 -43.44,-90.9374 -106.31,-90.9374 l -69.45,0 0,181.8984"
           id="path3291"
           style="fill:#00ace1;fill-opacity:1;fill-rule:nonzero;stroke:none" /><path
           d="m 5211.57,91.4688 0,12.4722 c -10.86,2.86 -25.15,5.719 -43.16,5.719 -27.42,0 -43.15,-10.91 -43.15,-27.0311 l 0,-0.5078 c 0,-16.9023 17.15,-26.7695 37.15,-26.7695 27.15,0 49.16,14.8086 49.16,36.1172 z m -108.61,-10.3985 0,0.5313 c 0,28.8394 25.72,43.9104 63.16,43.9104 18.87,0 32.01,-2.34 45.16,-5.723 l 0,4.16 c 0,23.91 -16,36.383 -43.71,36.383 -17.44,0 -31.15,-3.902 -44.88,-9.613 l -6.57,16.371 c 16.29,6.75 32,11.43 53.73,11.43 20.86,0 37.15,-5.188 47.72,-14.809 10.29,-9.359 15.43,-22.352 15.43,-39.492 l 0,-82.1174 -21.72,0 0,20.0078 c -10.27,-11.961 -27.15,-22.8711 -53.15,-22.8711 -27.73,0 -55.17,14.2929 -55.17,41.832"
           id="path3293"
           style="fill:#00ace1;fill-opacity:1;fill-rule:nonzero;stroke:none" /><path
           d="m 5276.49,77.6914 0,81.0896 -20.56,0 0,17.66 20.56,0 0,40.539 22.02,0 0,-40.539 46.87,0 0,-17.66 -46.87,0 0,-78.4802 c 0,-16.3789 10,-22.3516 24.86,-22.3516 7.42,0 13.71,1.3008 21.44,4.6719 l 0,-17.1406 c -7.73,-3.6485 -16.01,-5.7188 -26.58,-5.7188 -23.73,0 -41.74,10.6485 -41.74,37.9297"
           id="path3295"
           style="fill:#00ace1;fill-opacity:1;fill-rule:nonzero;stroke:none" /><path
           d="m 5472.28,91.4688 0,12.4722 c -10.86,2.86 -25.14,5.719 -43.15,5.719 -27.44,0 -43.16,-10.91 -43.16,-27.0311 l 0,-0.5078 c 0,-16.9023 17.15,-26.7695 37.16,-26.7695 27.15,0 49.15,14.8086 49.15,36.1172 z m -108.6,-10.3985 0,0.5313 c 0,28.8394 25.72,43.9104 63.17,43.9104 18.86,0 32.01,-2.34 45.15,-5.723 l 0,4.16 c 0,23.91 -16.01,36.383 -43.73,36.383 -17.44,0 -31.15,-3.902 -44.86,-9.613 l -6.58,16.371 c 16.29,6.75 32.01,11.43 53.73,11.43 20.86,0 37.15,-5.188 47.73,-14.809 10.29,-9.359 15.43,-22.352 15.43,-39.492 l 0,-82.1174 -21.72,0 0,20.0078 c -10.29,-11.961 -27.15,-22.8711 -53.16,-22.8711 -27.72,0 -55.16,14.2929 -55.16,41.832"
           id="path3297"
           style="fill:#00ace1;fill-opacity:1;fill-rule:nonzero;stroke:none" /></g></g></g></svg>