<?xml version="1.0" encoding="UTF-8" standalone="no"?>
<!-- Created with Inkscape (http://www.inkscape.org/) -->

<svg
   xmlns:dc="http://purl.org/dc/elements/1.1/"
   xmlns:cc="http://creativecommons.org/ns#"
   xmlns:rdf="http://www.w3.org/1999/02/22-rdf-syntax-ns#"
   xmlns:svg="http://www.w3.org/2000/svg"
   xmlns="http://www.w3.org/2000/svg"
   version="1.1"
   width="421.49249"
   height="174.21124"
   id="svg3014"
   xml:space="preserve"><metadata
     id="metadata3020"><rdf:RDF><cc:Work
         rdf:about=""><dc:format>image/svg+xml</dc:format><dc:type
           rdf:resource="http://purl.org/dc/dcmitype/StillImage" /><dc:title></dc:title></cc:Work></rdf:RDF></metadata><defs
     id="defs3018"><clipPath
       id="clipPath3030"><path
         d="m 0,0 6582.67,0 0,2248 L 0,2248 0,0 z"
         id="path3032" /></clipPath></defs><g
     transform="matrix(1.25,0,0,-1.25,0,281.02625)"
     id="g3022"><g
       transform="scale(0.1,0.1)"
       id="g3024"><g
         id="g3026"><path
           d="m 2162.73,2248.21 -747.75,0 0,-277.07 747.75,0 c 250.9,0 420.06,-173.16 420.06,-419.92 l 0,-4.08 c 0,-246.7 -169.16,-415.9 -420.06,-415.9 l -747.75,0 0,-276.72 747.75,0 c 437.93,0 740.49,304.55 740.49,696.7 l 0,3.89 c 0,392.12 -302.56,693.1 -740.49,693.1"
           id="path3034"
           style="fill:#00ace1;fill-opacity:1;fill-rule:nonzero;stroke:none" /><path
           d="m 3050.78,854.52 321.16,0 0,1393.69 -321.16,0 0,-1393.69 z"
           id="path3036"
           style="fill:#00ace1;fill-opacity:1;fill-rule:nonzero;stroke:none" /><path
           d="m 1118.42,1547.08 0,3.87 c 0,230.21 -168.811,422.05 -406.701,422.05 -237.949,0 -402.91,-187.99 -402.91,-418.15 l 0,-3.9 c 0,-230.22 168.828,-422.06 406.718,-422.06 237.852,0 402.893,188.03 402.893,418.19 z m -1118.42,0 0,3.87 c 0,381.75 301.172,694.86 715.527,694.86 414.433,0 711.793,-309.28 711.793,-690.96 l 0,-3.9 c 0,-381.72 -301.23,-694.552 -715.601,-694.552 C 297.402,856.398 0,1165.34 0,1547.08"
           id="path3038"
           style="fill:#32516e;fill-opacity:1;fill-rule:nonzero;stroke:none" /><path
           d="m 1753.94,279.98 0,1.11 c 0,95.351 -76.41,173.609 -181.31,173.609 -104.9,0 -180.1,-77.16 -180.1,-172.508 l 0,-1.101 c 0,-95.36 76.41,-173.621 181.31,-173.621 104.91,0 180.1,77.172 180.1,172.511 z m -394.15,0 0,1.11 c 0,105.269 85.5,199.519 214.05,199.519 128.56,0 212.84,-93.148 212.84,-198.418 0.61,-0.55 0.61,-0.55 0,-1.101 0,-105.27 -85.49,-199.5197 -214.05,-199.5197 -128.55,0 -212.84,93.1487 -212.84,198.4097"
           id="path3040"
           style="fill:#32516e;fill-opacity:1;fill-rule:nonzero;stroke:none" /><path
           d="m 2132.26,227.629 0,1.101 c 0,73.848 -56.39,121.25 -121.27,121.25 -64.28,0 -126.13,-49.05 -126.13,-120.699 l 0,-1.101 c 0,-72.2 61.85,-120.711 126.13,-120.711 67.31,0 121.27,44.652 121.27,120.16 z m -275.29,141.641 29.7,0 0,-62.829 c 26.68,36.93 66.11,69.438 127.35,69.438 74.59,0 150.38,-54.559 150.38,-146.051 l 0,-1.098 c 0,-91.492 -75.79,-147.1597 -150.38,-147.1597 -61.86,0 -101.88,31.9687 -127.35,67.2387 l 0,-148.809 -29.7,0 0,369.27"
           id="path3042"
           style="fill:#32516e;fill-opacity:1;fill-rule:nonzero;stroke:none" /><path
           d="m 2462.08,241.961 c -4.25,56.758 -40.02,109.129 -110.97,109.129 -61.25,0 -108.55,-46.852 -114.01,-109.129 l 224.98,0 z m -256.51,-13.781 0,1.101 c 0,81.571 63.07,146.598 146.75,146.598 86.72,0 141.89,-63.918 141.89,-147.149 0,-4.96 0,-6.621 -0.6,-11.019 l -256.51,0 c 5.46,-70 60.65,-110.781 121.28,-110.781 47.9,0 80.66,19.281 106.12,44.09 l 20.62,-16.54 c -31.53,-30.859 -68.52,-52.9097 -127.95,-52.9097 -81.26,0 -151.6,58.9807 -151.6,146.6097"
           id="path3044"
           style="fill:#32516e;fill-opacity:1;fill-rule:nonzero;stroke:none" /><path
           d="m 2550.58,369.27 29.71,0 0,-52.348 c 20.61,33.058 55.18,58.957 111.58,58.957 78.22,0 123.7,-48.5 123.7,-115.738 l 0,-171.9496 -29.72,0 0,166.9996 c 0,57.86 -35.77,95.899 -98.23,95.899 -60.63,0 -107.33,-41.899 -107.33,-100.32 l 0,-162.5786 -29.71,0 0,281.0786"
           id="path3046"
           style="fill:#32516e;fill-opacity:1;fill-rule:nonzero;stroke:none" /><path
           d="m 3191.46,114.641 c 118.24,0 192.83,73.3 192.83,165.339 l 0,1.11 c 0,91.488 -74.59,166.441 -192.83,166.441 l -109.76,0 0,-332.89 109.76,0 z m -141.29,359.347 141.29,0 c 133.39,0 225.56,-83.226 225.56,-191.797 l 0,-1.101 c 0,-108.578 -92.17,-192.8986 -225.56,-192.8986 l -141.29,0 0,385.7966"
           id="path3048"
           style="fill:#32516e;fill-opacity:1;fill-rule:nonzero;stroke:none" /><path
           d="m 3700.17,193.461 0,31.961 c -26.08,6.066 -60.65,12.68 -104.91,12.68 -65.48,0 -101.87,-26.461 -101.87,-65.59 l 0,-1.102 c 0,-40.781 42.44,-64.48 89.74,-64.48 63.07,0 117.04,35.269 117.04,86.531 z m -238.3,-23.699 0,1.097 c 0,58.422 55.17,91.493 135.21,91.493 43.05,0 72.77,-4.973 102.48,-12.122 l 0,12.122 c 0,56.757 -38.2,85.968 -101.87,85.968 -37.6,0 -68.52,-9.359 -97.02,-22.59 l -10.91,23.7 c 33.94,14.332 67.3,24.25 109.74,24.25 41.86,0 75.2,-10.469 97.64,-30.871 20.6,-18.739 31.52,-44.629 31.52,-79.36 l 0,-175.2576 -29.1,0 0,46.8396 c -21.23,-27 -59.43,-53.4607 -118.24,-53.4607 -57.62,0 -119.45,29.7577 -119.45,88.1917"
           id="path3050"
           style="fill:#32516e;fill-opacity:1;fill-rule:nonzero;stroke:none" /><path
           d="m 3818.45,160.379 0,184.082 -44.89,0 0,24.809 44.89,0 0,89.832 29.7,0 0,-89.832 108.56,0 0,-24.809 -108.56,0 0,-181.313 c 0,-40.238 26.08,-54.566 61.86,-54.566 15.16,0 27.89,2.746 45.47,9.918 l 0,-25.3516 c -15.76,-6.6093 -30.92,-9.9296 -50.31,-9.9296 -47.91,0 -86.72,23.7112 -86.72,77.1602"
           id="path3052"
           style="fill:#32516e;fill-opacity:1;fill-rule:nonzero;stroke:none" /><path
           d="m 4227.12,193.461 0,31.961 c -26.08,6.066 -60.65,12.68 -104.92,12.68 -65.49,0 -101.86,-26.461 -101.86,-65.59 l 0,-1.102 c 0,-40.781 42.44,-64.48 89.75,-64.48 63.04,0 117.03,35.269 117.03,86.531 z m -238.32,-23.699 0,1.097 c 0,58.422 55.17,91.493 135.23,91.493 43.05,0 72.76,-4.973 102.48,-12.122 l 0,12.122 c 0,56.757 -38.2,85.968 -101.87,85.968 -37.6,0 -68.54,-9.359 -97.03,-22.59 l -10.92,23.7 c 33.96,14.332 67.32,24.25 109.77,24.25 41.83,0 75.19,-10.469 97.61,-30.871 20.63,-18.739 31.55,-44.629 31.55,-79.36 l 0,-175.2576 -29.11,0 0,46.8396 c -21.23,-27 -59.43,-53.4607 -118.26,-53.4607 -57.6,0 -119.45,29.7577 -119.45,88.1917"
           id="path3054"
           style="fill:#32516e;fill-opacity:1;fill-rule:nonzero;stroke:none" /><path
           d="m 4494.46,88.1914 31.5312,0 0,385.797 -31.5312,0 0,-385.797 z"
           id="path3056"
           style="fill:#32516e;fill-opacity:1;fill-rule:nonzero;stroke:none" /><path
           d="m 4619.35,369.27 29.7,0 0,-52.348 c 20.63,33.058 55.2,58.957 111.58,58.957 78.23,0 123.72,-48.5 123.72,-115.738 l 0,-171.9496 -29.73,0 0,166.9996 c 0,57.86 -35.76,95.899 -98.22,95.899 -60.65,0 -107.35,-41.899 -107.35,-100.32 l 0,-162.5786 -29.7,0 0,281.0786"
           id="path3058"
           style="fill:#32516e;fill-opacity:1;fill-rule:nonzero;stroke:none" /><path
           d="m 4934.03,123.461 17.58,21.488 c 33.97,-23.699 71.54,-36.918 110.96,-36.918 41.85,0 74.59,20.938 74.59,53.457 l 0,1.102 c 0,33.07 -38.81,45.199 -81.86,56.219 -50.33,13.222 -106.11,27 -106.11,77.16 l 0,1.101 c 0,45.2 41.84,77.719 101.87,77.719 36.98,0 78.83,-12.129 109.75,-30.867 l -15.76,-22.602 c -28.5,17.09 -62.46,28.11 -95.2,28.11 -42.46,0 -70.35,-20.942 -70.35,-49.059 l 0,-1.09 c 0,-31.422 41.84,-43 86.12,-54.57 49.72,-12.68 101.87,-29.211 101.87,-78.813 l 0,-1.097 c 0,-50.16 -47.3,-82.1213 -106.74,-82.1213 -44.86,0 -93.98,16.5312 -126.72,40.7813"
           id="path3060"
           style="fill:#32516e;fill-opacity:1;fill-rule:nonzero;stroke:none" /><path
           d="m 5242.02,160.379 0,184.082 -44.86,0 0,24.809 44.86,0 0,89.832 29.73,0 0,-89.832 108.53,0 0,-24.809 -108.53,0 0,-181.313 c 0,-40.238 26.07,-54.566 61.83,-54.566 15.18,0 27.91,2.746 45.49,9.918 l 0,-25.3516 c -15.76,-6.6093 -30.92,-9.9296 -50.33,-9.9296 -47.91,0 -86.72,23.7112 -86.72,77.1602"
           id="path3062"
           style="fill:#32516e;fill-opacity:1;fill-rule:nonzero;stroke:none" /><path
           d="m 5442.1,369.27 29.71,0 0,-281.0786 -29.71,0 0,281.0786 z m -3.63,110.23 36.99,0 0,-36.93 -36.99,0 0,36.93"
           id="path3064"
           style="fill:#32516e;fill-opacity:1;fill-rule:nonzero;stroke:none" /><path
           d="m 5574.87,160.379 0,184.082 -44.86,0 0,24.809 44.86,0 0,89.832 29.73,0 0,-89.832 108.53,0 0,-24.809 -108.53,0 0,-181.313 c 0,-40.238 26.07,-54.566 61.84,-54.566 15.17,0 27.91,2.746 45.48,9.918 l 0,-25.3516 c -15.76,-6.6093 -30.91,-9.9296 -50.33,-9.9296 -47.91,0 -86.72,23.7112 -86.72,77.1602"
           id="path3066"
           style="fill:#32516e;fill-opacity:1;fill-rule:nonzero;stroke:none" /><path
           d="m 5764.66,197.32 0,171.95 29.71,0 0,-166.989 c 0,-57.871 35.78,-95.91 98.24,-95.91 60.62,0 107.32,41.891 107.32,100.309 l 0,162.59 29.71,0 0,-281.0786 -29.71,0 0,52.3596 c -20.62,-33.082 -55.17,-58.9807 -111.58,-58.9807 -78.22,0 -123.69,48.4997 -123.69,115.7497"
           id="path3068"
           style="fill:#32516e;fill-opacity:1;fill-rule:nonzero;stroke:none" /><path
           d="m 6128.43,160.379 0,184.082 -44.87,0 0,24.809 44.87,0 0,89.832 29.72,0 0,-89.832 108.54,0 0,-24.809 -108.54,0 0,-181.313 c 0,-40.238 26.08,-54.566 61.84,-54.566 15.18,0 27.91,2.746 45.49,9.918 l 0,-25.3516 c -15.76,-6.6093 -30.92,-9.9296 -50.33,-9.9296 -47.91,0 -86.72,23.7112 -86.72,77.1602"
           id="path3070"
           style="fill:#32516e;fill-opacity:1;fill-rule:nonzero;stroke:none" /><path
           d="m 6550.52,241.961 c -4.24,56.758 -40.02,109.129 -110.96,109.129 -61.25,0 -108.55,-46.852 -114,-109.129 l 224.96,0 z m -256.51,-13.781 0,1.101 c 0,81.571 63.07,146.598 146.76,146.598 86.72,0 141.9,-63.918 141.9,-147.149 0,-4.96 0,-6.621 -0.61,-11.019 l -256.5,0 c 5.45,-70 60.64,-110.781 121.27,-110.781 47.91,0 80.66,19.281 106.11,44.09 l 20.62,-16.54 c -31.52,-30.859 -68.51,-52.9097 -127.94,-52.9097 -81.25,0 -151.61,58.9807 -151.61,146.6097"
           id="path3072"
           style="fill:#32516e;fill-opacity:1;fill-rule:nonzero;stroke:none" /></g></g></g></svg>